<?xml version="1.0" standalone="no"?><svg xmlns="http://www.w3.org/2000/svg" viewBox="0 0 1440 320"><path fill="#202738" fill-opacity="1" d="M0,320L13.3,272C26.7,224,53,128,80,90.7C106.7,53,133,75,160,112C186.7,149,213,203,240,202.7C266.7,203,293,149,320,144C346.7,139,373,181,400,192C426.7,203,453,181,480,181.3C506.7,181,533,203,560,229.3C586.7,256,613,288,640,261.3C666.7,235,693,149,720,144C746.7,139,773,213,800,234.7C826.7,256,853,224,880,192C906.7,160,933,128,960,117.3C986.7,107,1013,117,1040,138.7C1066.7,160,1093,192,1120,170.7C1146.7,149,1173,75,1200,42.7C1226.7,11,1253,21,1280,48C1306.7,75,1333,117,1360,133.3C1386.7,149,1413,139,1427,133.3L1440,128L1440,320L1426.7,320C1413.3,320,1387,320,1360,320C1333.3,320,1307,320,1280,320C1253.3,320,1227,320,1200,320C1173.3,320,1147,320,1120,320C1093.3,320,1067,320,1040,320C1013.3,320,987,320,960,320C933.3,320,907,320,880,320C853.3,320,827,320,800,320C773.3,320,747,320,720,320C693.3,320,667,320,640,320C613.3,320,587,320,560,320C533.3,320,507,320,480,320C453.3,320,427,320,400,320C373.3,320,347,320,320,320C293.3,320,267,320,240,320C213.3,320,187,320,160,320C133.3,320,107,320,80,320C53.3,320,27,320,13,320L0,320Z"></path></svg>